<svg xmlns="http://www.w3.org/2000/svg" fill="none" viewBox="0 0 27 27">
    <path fill="currentColor" fill-rule="evenodd" d="M18.0016 11.7c0 3.4794-2.8206 6.3-6.3 6.3-3.4794 0-6.3-2.8206-6.3-6.3 0-3.4794 2.8206-6.3 6.3-6.3 3.4794 0 6.3 2.8206 6.3 6.3Zm-1.2441 6.3286C15.3718 19.1372 13.6141 19.8 11.7016 19.8c-4.4735 0-8.1-3.6265-8.1-8.1s3.6265-8.1 8.1-8.1 8.1 3.6265 8.1 8.1c0 1.9125-.6628 3.6702-1.7714 5.0559l5.1078 5.1076a.9004.9004 0 0 1 0 1.273.9004.9004 0 0 1-1.2729 0l-5.1076-5.1079Z" clip-rule="evenodd" opacity=".8"/>
</svg>
